<?xml version="1.0" encoding="iso-8859-1"?>
<!-- Generator: Adobe Illustrator 19.0.0, SVG Export Plug-In . SVG Version: 6.00 Build 0)  -->
<svg version="1.1" id="Layer_1" xmlns="http://www.w3.org/2000/svg" xmlns:xlink="http://www.w3.org/1999/xlink" x="0px" y="0px"
	 viewBox="0 0 491.516 491.516" style="enable-background:new 0 0 491.516 491.516;" xml:space="preserve">
<path style="fill:#563713;" d="M245.758,0c0,0-58.985,101.362-183.614,103.086v206.007c0,0,0,130.154,183.614,182.423
	c183.614-52.269,183.614-182.423,183.614-182.423V103.086C304.743,101.362,245.758,0,245.758,0z"/>
<g>
	<path style="fill:#ECC70C;" d="M245.759,463.576l-2.67-0.838C93.356,415.811,89.071,313.224,88.957,308.886V128.294l7.61-1.152
		c68.072-10.246,115.182-46.866,142.717-75.787l6.476-6.798l6.476,6.798c27.534,28.922,74.643,65.541,142.716,75.787l7.61,1.152
		v180.801c-0.122,4.582-4.695,106.804-154.131,153.643L245.759,463.576z M106.831,143.558v165.101
		c0.096,3.569,3.892,92.701,138.928,136.18c134.792-43.392,138.824-132.209,138.928-135.996V143.558
		c-64.005-11.572-109.928-44.727-138.928-73.291C216.759,98.831,170.836,131.986,106.831,143.558z"/>
</g>
<g>
</g>
<g>
</g>
<g>
</g>
<g>
</g>
<g>
</g>
<g>
</g>
<g>
</g>
<g>
</g>
<g>
</g>
<g>
</g>
<g>
</g>
<g>
</g>
<g>
</g>
<g>
</g>
<g>
</g>
</svg>
